# written by convert_mb_to_amc()
:FULLY-SPECIFIED
:DEGREES
76
upperback 2.987990 9.975230 -11.162600
rfoot -32.261799 -22.981300
lradius 13.922900
lthumb 21.772100 40.223099
rradius 70.030403
lwrist -25.207300
rhand -10.392500 -2.856080
rhumerus 60.595402 12.177600 -30.997601
lowerneck -1.770330 -4.486920 5.354670
lhand -3.981150 11.427600
ltibia 66.696297
head 7.058850 -0.166598 6.837660
rwrist -16.063101
lfingers 7.125020
rtoes 18.454399
lowerback 7.653770 6.424330 6.689700
rfingers 7.125020
lclavicle 0.000000 -0.000000
upperneck 19.483601 -7.413800 24.139999
rfemur -40.307400 -21.101400 62.596500
thorax 2.182770 5.837000 -16.571501
rclavicle 0.000000 -0.000000
rtibia 35.237999
lfoot 20.602501 -3.052320
lhumerus -27.371599 14.373100 34.225399
rthumb 15.605600 -32.246601
root 44.563637 17.687080 2.358504 754.419983 147.994995 16.292299
ltoes 5.889090
lfemur -84.825104 -26.653799 38.289200
77
upperback 2.089984 9.586780 -12.977161
rfoot -29.207056 -18.674147
lradius 14.412793
lthumb 20.841223 40.053333
rradius 82.269211
lwrist -21.357317
rhand -13.027474 -2.919703
rhumerus 54.156590 -6.358806 -26.398258
lowerneck 1.810328 -4.171445 8.790724
lhand -4.950242 11.152827
ltibia 75.533302
head 6.512096 0.584406 6.718809
rwrist -25.771372
lfingers 7.125020
rtoes 18.172401
lowerback 7.836033 5.971129 8.686699
rfingers 7.125020
lclavicle -0.000000 -0.000000
upperneck 20.216150 -6.382919 25.031660
rfemur -34.352665 -14.690059 60.161095
thorax 1.710559 5.736277 -20.324427
rclavicle -0.000000 -0.000000
rtibia 34.686962
lfoot 12.109072 9.469266
lhumerus -26.181730 4.950355 37.606773
rthumb 13.066710 -32.490280
root 44.537899 17.580780 2.766553 758.489380 135.857361 22.257713
ltoes 20.520472
lfemur -79.002296 -23.077536 29.080137
78
upperback 1.293619 3.505546 -9.915235
rfoot -25.026066 -11.480568
lradius 14.020320
lthumb 18.145531 41.138134
rradius 89.493515
lwrist -24.034981
rhand -20.474880 -8.005189
rhumerus 65.372841 -21.640068 -31.304249
lowerneck 2.917189 -1.669942 2.969740
lhand -7.753962 11.964543
ltibia 56.655289
head 7.712848 0.518229 6.463140
rwrist -37.764469
lfingers 7.125020
rtoes 13.549661
lowerback 1.950513 2.276966 3.869211
rfingers 7.125020
lclavicle 0.000000 0.000000
upperneck 25.289740 -4.457862 20.805412
rfemur -21.768661 1.967519 52.281975
thorax 1.136153 2.049930 -12.908974
rclavicle 0.000000 0.000000
rtibia 34.951885
lfoot -3.279559 -11.840983
lhumerus -42.146873 14.353972 42.558842
rthumb 5.881314 -37.903252
root 44.795742 17.625809 2.657529 791.673401 110.517769 57.847610
ltoes -3.604694
lfemur -67.723495 -29.013449 24.277599
79
upperback -0.355452 -3.374654 -4.222137
rfoot -18.833694 0.104246
lradius 13.349530
lthumb 17.770702 43.080139
rradius 94.689880
lwrist -27.473923
rhand -30.118938 -16.430811
rhumerus 77.984276 -30.460463 -44.599495
lowerneck -2.642689 -2.285250 -6.449315
lhand -8.143538 13.872190
ltibia 49.249157
head 10.568171 -1.780098 6.921350
rwrist -42.942455
lfingers 7.125020
rtoes 2.270005
lowerback 0.701702 -2.537792 1.272964
rfingers 7.125020
lclavicle 0.000000 0.000000
upperneck 29.502216 -6.461760 17.256945
rfemur -10.384358 12.805353 43.796978
thorax -1.088429 -1.701261 -5.007001
rclavicle 0.000000 0.000000
rtibia 38.132645
lfoot -4.778003 -14.229961
lhumerus -60.075005 23.661833 40.657795
rthumb -3.432299 -46.382622
root 45.793697 18.112343 2.176489 889.150452 131.426163 156.574799
ltoes -8.834400
lfemur -48.287395 -31.681488 17.870161
80
upperback -0.830475 -4.768549 -1.525142
rfoot -17.089626 -6.445128
lradius 13.031872
lthumb 22.191187 46.952187
rradius 95.664948
lwrist -29.564175
rhand -37.462223 -24.253660
rhumerus 69.107376 -44.518276 -45.589149
lowerneck -4.263291 -3.827623 -3.614304
lhand -3.544615 18.206207
ltibia 45.892845
head 9.870646 -3.098017 3.800195
rwrist -38.742008
lfingers 7.125020
rtoes -17.357712
lowerback 0.916508 -3.571082 0.952732
rfingers 7.125020
lclavicle -0.000000 -0.000000
upperneck 27.110428 -8.062868 11.314375
rfemur -17.684008 3.939981 28.990978
thorax -1.571576 -2.402500 -1.978886
rclavicle -0.000000 -0.000000
rtibia 48.495800
lfoot -19.442640 8.662728
lhumerus -73.159904 19.115646 32.636772
rthumb -10.520508 -53.970062
root 47.516647 18.488598 2.082911 907.504639 183.906250 169.947205
ltoes -8.173599
lfemur -25.407192 -18.792704 1.473805
81
upperback -1.010050 -6.313810 -0.749533
rfoot -21.820601 -26.588200
lradius 29.534401
lthumb 16.727501 73.792198
rradius 94.473000
lwrist -30.672800
rhand -40.034199 -31.822701
rhumerus 39.288200 -53.422298 -23.664499
lowerneck -5.835330 -1.926530 -1.833890
lhand -9.227430 44.492901
ltibia 40.009399
head 10.209600 -2.032960 2.520140
rwrist -36.731602
lfingers 7.125020
rtoes 5.531230
lowerback -0.033356 -4.722710 -0.618804
rfingers 7.125020
lclavicle 0.000000 0.000000
upperneck 28.303400 -5.245020 7.866920
rfemur -36.354000 -16.947800 24.637100
thorax -1.034450 -3.156850 -0.367089
rclavicle 0.000000 0.000000
rtibia 48.434601
lfoot -27.479500 12.309200
lhumerus -81.527802 25.744900 21.401501
rthumb -13.000700 -61.397598
root 47.980255 18.475163 2.502814 915.434998 220.587006 172.235001
ltoes -5.428430
lfemur -15.762100 -8.384440 -8.168980
82
upperback -2.235790 -9.772705 1.265491
rfoot -25.892179 -30.361193
lradius 19.997967
lthumb -6.617177 -276.879333
rradius 90.566994
lwrist -47.931046
rhand -42.926689 -39.173462
rhumerus 12.494306 -55.622147 -3.655803
lowerneck -8.081423 0.875336 0.381250
lhand -33.417442 53.244991
ltibia 40.093369
head 12.319205 -0.367150 -0.790690
rwrist -33.209736
lfingers 7.125020
rtoes 14.818173
lowerback -1.415376 -7.320225 -0.134940
rfingers 7.125020
lclavicle 0.000000 -0.000000
upperneck 33.306263 0.567400 -1.833162
rfemur -36.524441 -19.787107 25.784119
thorax -1.270357 -4.885998 1.323400
rclavicle 0.000000 -0.000000
rtibia 48.424763
lfoot -28.956127 15.365715
lhumerus -54.437542 21.534056 -2.157223
rthumb -15.787688 -68.548973
root 46.587276 18.088703 2.759418 911.217651 239.851974 175.618973
ltoes -14.498168
lfemur -4.703421 -1.256663 -13.447474
83
upperback -1.322336 -9.405529 1.083413
rfoot -26.753567 -18.097637
lradius 15.387580
lthumb -10.378399 -274.764282
rradius 72.233063
lwrist -44.168175
rhand -49.280968 -53.135075
rhumerus -6.571017 -53.069221 1.695414
lowerneck -8.829302 6.354310 6.002813
lhand -37.314907 55.511860
ltibia 61.521481
head 11.744089 3.369382 -3.188456
rwrist -28.859316
lfingers 7.125020
rtoes 11.663859
lowerback -0.583844 -7.053487 5.072482
rfingers 7.125020
lclavicle 0.000000 0.000000
upperneck 29.365469 9.229830 -8.744265
rfemur -35.217449 -2.640240 22.135372
thorax -1.665811 -4.761261 -1.543747
rclavicle 0.000000 0.000000
rtibia 52.590744
lfoot -4.454439 5.629977
lhumerus -61.347992 35.570728 -3.060637
rthumb -21.898825 -81.915726
root 44.721100 17.874880 3.147654 918.347595 271.191986 169.567627
ltoes -1.926180
lfemur -13.009485 8.171264 -11.017861
